<svg width="352" height="93" viewBox="0 0 352 93" fill="none" xmlns="http://www.w3.org/2000/svg">
<g clip-path="url(#clip0_2_12)">
<path d="M311.376 24.1157C308.434 24.1157 306.042 26.1686 306.042 28.6923C306.042 31.2161 308.434 33.269 311.376 33.269C314.317 33.269 316.709 31.2161 316.709 28.6923C316.709 26.1686 314.316 24.1157 311.376 24.1157ZM311.376 31.2154C309.753 31.2154 308.434 30.0835 308.434 28.6923C308.434 27.3012 309.753 26.1686 311.376 26.1686C312.998 26.1686 314.317 27.3005 314.317 28.6923C314.317 30.0842 312.997 31.2154 311.376 31.2154Z" fill="#0085BE"/>
<path d="M320.995 29.7188H350.804C351.464 29.7188 352 29.2596 352 28.6923C352 28.1251 351.464 27.6659 350.804 27.6659H320.995C320.334 27.6659 319.799 28.1251 319.799 28.6923C319.799 29.2596 320.334 29.7188 320.995 29.7188Z" fill="#0085BE"/>
<path d="M311.376 38.7427C308.434 38.7427 306.042 40.7956 306.042 43.3193C306.042 45.843 308.434 47.8959 311.376 47.8959C314.317 47.8959 316.709 45.843 316.709 43.3193C316.709 40.7956 314.316 38.7427 311.376 38.7427ZM311.376 45.8424C309.753 45.8424 308.434 44.7105 308.434 43.3193C308.434 41.9281 309.753 40.7956 311.376 40.7956C312.998 40.7956 314.317 41.9275 314.317 43.3193C314.317 44.7112 312.997 45.8424 311.376 45.8424Z" fill="#0085BE"/>
<path d="M350.804 42.2929H320.995C320.334 42.2929 319.799 42.752 319.799 43.3193C319.799 43.8866 320.334 44.3458 320.995 44.3458H350.804C351.464 44.3458 352 43.8866 352 43.3193C352 42.752 351.464 42.2929 350.804 42.2929Z" fill="#0085BE"/>
<path d="M311.376 53.3697C308.434 53.3697 306.042 55.4226 306.042 57.9463C306.042 60.47 308.434 62.5229 311.376 62.5229C314.317 62.5229 316.709 60.47 316.709 57.9463C316.709 55.4226 314.316 53.3697 311.376 53.3697ZM311.376 60.4693C309.753 60.4693 308.434 59.3375 308.434 57.9463C308.434 56.5551 309.753 55.4226 311.376 55.4226C312.998 55.4226 314.317 56.5544 314.317 57.9463C314.317 59.3382 312.997 60.4693 311.376 60.4693Z" fill="#0085BE"/>
<path d="M350.804 56.9199H320.995C320.334 56.9199 319.799 57.3797 319.799 57.9463C319.799 58.5129 320.334 58.9728 320.995 58.9728H350.804C351.464 58.9728 352 58.5129 352 57.9463C352 57.3797 351.464 56.9199 350.804 56.9199Z" fill="#0085BE"/>
</g>
<path d="M14.912 39.344C15.9787 37.68 17.4507 36.336 19.328 35.312C21.2053 34.288 23.4027 33.776 25.92 33.776C28.864 33.776 31.5307 34.5227 33.92 36.016C36.3093 37.5093 38.1867 39.6427 39.552 42.416C40.96 45.1893 41.664 48.4107 41.664 52.08C41.664 55.7493 40.96 58.992 39.552 61.808C38.1867 64.5813 36.3093 66.736 33.92 68.272C31.5307 69.7653 28.864 70.512 25.92 70.512C23.4453 70.512 21.248 70 19.328 68.976C17.4507 67.952 15.9787 66.6293 14.912 65.008V87.024H3.968V34.288H14.912V39.344ZM30.528 52.08C30.528 49.3493 29.76 47.216 28.224 45.68C26.7307 44.1013 24.8747 43.312 22.656 43.312C20.48 43.312 18.624 44.1013 17.088 45.68C15.5947 47.2587 14.848 49.4133 14.848 52.144C14.848 54.8747 15.5947 57.0293 17.088 58.608C18.624 60.1867 20.48 60.976 22.656 60.976C24.832 60.976 26.688 60.1867 28.224 58.608C29.76 56.9867 30.528 54.8107 30.528 52.08ZM79.7255 25.072V33.84H67.8215V70H56.8775V33.84H44.9735V25.072H79.7255ZM101.474 70.512C97.9753 70.512 94.818 69.7653 92.002 68.272C89.2287 66.7787 87.0313 64.6453 85.41 61.872C83.8313 59.0987 83.042 55.856 83.042 52.144C83.042 48.4747 83.8527 45.2533 85.474 42.48C87.0953 39.664 89.314 37.5093 92.13 36.016C94.946 34.5227 98.1033 33.776 101.602 33.776C105.101 33.776 108.258 34.5227 111.074 36.016C113.89 37.5093 116.109 39.664 117.73 42.48C119.351 45.2533 120.162 48.4747 120.162 52.144C120.162 55.8133 119.33 59.056 117.666 61.872C116.045 64.6453 113.805 66.7787 110.946 68.272C108.13 69.7653 104.973 70.512 101.474 70.512ZM101.474 61.04C103.565 61.04 105.335 60.272 106.786 58.736C108.279 57.2 109.026 55.0027 109.026 52.144C109.026 49.2853 108.301 47.088 106.85 45.552C105.442 44.016 103.693 43.248 101.602 43.248C99.4687 43.248 97.698 44.016 96.29 45.552C94.882 47.0453 94.178 49.2427 94.178 52.144C94.178 55.0027 94.8607 57.2 96.226 58.736C97.634 60.272 99.3833 61.04 101.474 61.04ZM142.8 25.072C147.536 25.072 151.675 26.0107 155.216 27.888C158.757 29.7653 161.488 32.4107 163.408 35.824C165.371 39.1947 166.352 43.0987 166.352 47.536C166.352 51.9307 165.371 55.8347 163.408 59.248C161.488 62.6613 158.736 65.3067 155.152 67.184C151.611 69.0613 147.493 70 142.8 70H125.968V25.072H142.8ZM142.096 60.528C146.235 60.528 149.456 59.3973 151.76 57.136C154.064 54.8747 155.216 51.6747 155.216 47.536C155.216 43.3973 154.064 40.176 151.76 37.872C149.456 35.568 146.235 34.416 142.096 34.416H136.912V60.528H142.096ZM188.724 70.512C185.225 70.512 182.068 69.7653 179.252 68.272C176.479 66.7787 174.281 64.6453 172.66 61.872C171.081 59.0987 170.292 55.856 170.292 52.144C170.292 48.4747 171.103 45.2533 172.724 42.48C174.345 39.664 176.564 37.5093 179.38 36.016C182.196 34.5227 185.353 33.776 188.852 33.776C192.351 33.776 195.508 34.5227 198.324 36.016C201.14 37.5093 203.359 39.664 204.98 42.48C206.601 45.2533 207.412 48.4747 207.412 52.144C207.412 55.8133 206.58 59.056 204.916 61.872C203.295 64.6453 201.055 66.7787 198.196 68.272C195.38 69.7653 192.223 70.512 188.724 70.512ZM188.724 61.04C190.815 61.04 192.585 60.272 194.036 58.736C195.529 57.2 196.276 55.0027 196.276 52.144C196.276 49.2853 195.551 47.088 194.1 45.552C192.692 44.016 190.943 43.248 188.852 43.248C186.719 43.248 184.948 44.016 183.54 45.552C182.132 47.0453 181.428 49.2427 181.428 52.144C181.428 55.0027 182.111 57.2 183.476 58.736C184.884 60.272 186.633 61.04 188.724 61.04ZM258.786 33.904C263.223 33.904 266.743 35.248 269.346 37.936C271.991 40.624 273.314 44.3573 273.314 49.136V70H262.434V50.608C262.434 48.304 261.815 46.5333 260.578 45.296C259.383 44.016 257.719 43.376 255.586 43.376C253.453 43.376 251.767 44.016 250.53 45.296C249.335 46.5333 248.738 48.304 248.738 50.608V70H237.858V50.608C237.858 48.304 237.239 46.5333 236.002 45.296C234.807 44.016 233.143 43.376 231.01 43.376C228.877 43.376 227.191 44.016 225.954 45.296C224.759 46.5333 224.162 48.304 224.162 50.608V70H213.218V34.288H224.162V38.768C225.271 37.2747 226.722 36.1013 228.514 35.248C230.306 34.352 232.333 33.904 234.594 33.904C237.282 33.904 239.671 34.48 241.762 35.632C243.895 36.784 245.559 38.4267 246.754 40.56C247.991 38.5973 249.677 36.9973 251.81 35.76C253.943 34.5227 256.269 33.904 258.786 33.904Z" fill="#0085BE"/>
<defs>
<clipPath id="clip0_2_12">
<rect width="45.9585" height="38.4065" fill="white" transform="translate(306.042 24.1157)"/>
</clipPath>
</defs>
</svg>
